HIERARCHY
ROOT Hips
{
	OFFSET 0.00000 0.00000 0.00000
	CHANNELS 6 Xposition Yposition Zposition Yrotation Zrotation Xrotation 
	JOINT Lumbar
	{
		OFFSET 0 0 0
		CHANNELS 3 Zrotation Xrotation Yrotation
		JOINT Neck
		{
			OFFSET 0.00 0.2701 0.00
			CHANNELS 3 Zrotation Xrotation Yrotation
			End Site
			{
				OFFSET 0.00 0.1379 0.00
			}
		}
		JOINT RightShoulder
		{
			OFFSET 0.0119 0.2289 0.1181
			CHANNELS 3 Zrotation Xrotation Yrotation
			JOINT RightElbow
			{
				OFFSET 0.00 -0.1475 0.00
				CHANNELS 2 Zrotation Yrotation
				JOINT RightWrist
				{
					OFFSET 0.00 -0.1605 0.00
					CHANNELS 2 Zrotation Xrotation
					End Site
					{
						OFFSET 0.0040 -0.1068 0.0006
					}
				}
			}
		}
		JOINT LeftShoulder
		{
			OFFSET 0.0119 0.2289 -0.1181
			CHANNELS 3 Zrotation Xrotation Yrotation
			JOINT LeftElbow
			{
				OFFSET 0.00 -0.1475 0.00
				CHANNELS 2 Zrotation Yrotation
				JOINT LeftWrist
				{
					OFFSET 0.00 -0.1605 0.00
					CHANNELS 2 Zrotation Xrotation
					End Site
					{
						OFFSET 0.0040 -0.1068 -0.0006
					}
				}
			}
		}
	}
	JOINT RightHip
	{
		OFFSET 0.0316 -0.0424 0.0458
		CHANNELS 3 Zrotation Xrotation Yrotation
		JOINT RightKnee
		{
			OFFSET 0.00 -0.2438 0.00
			CHANNELS 1 Zrotation
			JOINT RightAnkle
			{
				OFFSET 0.00 -0.2449 0.00
				CHANNELS 3 Zrotation Xrotation Yrotation
				End Site
				{
					OFFSET 0.1237 -0.0542 0.0051
				}
			}
		}
	}
	JOINT LeftHip
	{
		OFFSET 0.0316 -0.0424 -0.0458
		CHANNELS 3 Zrotation Xrotation Yrotation
		JOINT LeftKnee
		{
			OFFSET 0.00 -0.2438 0.00
			CHANNELS 1 Zrotation
			JOINT LeftAnkle
			{
				OFFSET 0.00 -0.2449 0.00
				CHANNELS 3 Zrotation Xrotation Yrotation
				End Site
				{
					OFFSET 0.1237 -0.0542 -0.0051
				}
			}
		}
	}
}
MOTION
Frames: 26
Frame Time: 0.02
0.00285 0.58857 -0.04106 214.07048 0 -1.86699 -20.7136 7.78795 -4.52901 39.51269 6.52009 -7.81152 82.42302 3.60096 63.67908 89.80256 95.03684 28.01958 0.51664 55.89181 9.54567 -61.86662 106.80104 -59.14808 36.32509 6.00084 0.2828 7.87281 -1.94125 -4.05658 -4.68146 -3.36605 -7.32806 2.28617 -0.01418 -14.49464 -8.36525 -0.48893 4.46796 8.85469
0.00256 0.5885 -0.04115 213.76684 0 -1.89283 -21.19174 7.65991 -4.44981 39.12335 6.66384 -7.88831 82.83033 3.83099 63.75973 90.91791 95.26118 29.77441 0.23405 57.63023 9.79872 -61.87332 107.87088 -58.21218 37.44247 6.07384 -0.14418 7.9243 0.75004 -3.25222 -5.03938 -2.79396 -9.64983 1.93298 0.14695 -13.7905 -7.74666 -0.58213 4.35013 8.44582
0.00234 0.58839 -0.04132 213.48047 0 -1.89919 -21.6286 7.49187 -4.38838 38.81799 6.75014 -7.91716 83.05889 3.91185 63.72486 91.52453 95.83575 31.66944 -0.18395 59.15343 10.19147 -61.85202 108.48915 -58.03984 37.56188 6.10179 -0.52162 7.95892 4.28476 -2.52478 -5.39045 -2.11959 -12.79394 1.63723 0.26914 -13.09982 -7.22873 -0.64282 4.2331 8.00848
0.0021 0.5883 -0.04146 213.19342 0 -1.91564 -22.07834 7.34721 -4.32014 38.4785 6.84982 -7.958 83.34366 4.04511 63.73599 92.35074 96.24533 33.41318 -0.52705 60.73998 10.51783 -61.84243 109.27445 -57.47148 38.13062 6.15538 -0.91358 8.00124 7.32332 -1.77641 -5.73872 -1.51643 -15.45995 1.31918 0.40797 -12.41576 -6.67472 -0.71411 4.11931 7.59121
0.00183 0.58821 -0.04159 212.87413 0 -1.92979 -22.55188 7.18167 -4.24292 38.10946 6.99932 -8.03746 83.73925 4.23251 63.77417 93.2196 96.66753 35.52036 -0.92409 62.50971 10.86723 -61.83536 110.20259 -57.08226 38.75846 6.18533 -1.34067 8.04599 10.83525 -0.96556 -6.11451 -0.80867 -18.5606 0.98328 0.55119 -11.67686 -6.09403 -0.78962 3.99551 7.14767
0.00164 0.5881 -0.04176 212.62696 0 -1.94291 -22.96544 7.04969 -4.18976 37.82554 7.03332 -8.02657 83.8626 4.27484 63.72962 93.87927 97.14985 36.90809 -1.24177 63.83086 11.19815 -61.81699 110.73126 -56.51827 39.00399 6.25486 -1.68237 8.08063 13.56649 -0.30443 -6.43005 -0.29312 -20.95724 0.69933 0.67573 -11.05613 -5.58872 -0.8533 3.89093 6.75118
0.00167 0.58796 -0.04205 212.57326 0 -1.95904 -23.23524 7.02014 -4.20196 37.7706 6.75753 -7.77317 83.24076 3.96417 63.47357 94.11002 97.73065 36.25042 -1.30825 63.98463 11.44176 -61.77481 110.28767 -55.21936 38.51007 6.44004 -1.79921 8.09214 13.88776 -0.03748 -6.58472 -0.35181 -21.16196 0.53928 0.76212 -10.75435 -5.25054 -0.898 3.83714 6.48458
0.00177 0.5878 -0.04237 212.59193 0 -1.97424 -23.44393 7.02554 -4.23778 37.79753 6.36916 -7.43212 82.35706 3.51114 63.14016 94.14459 98.35918 34.86822 -1.29009 63.68688 11.66331 -61.7221 109.45606 -53.74208 37.64405 6.6674 -1.83187 8.09358 13.40255 0.08087 -6.67803 -0.60466 -20.63815 0.43066 0.83043 -10.57196 -4.98559 -0.93274 3.80232 6.26717
0.00183 0.58765 -0.04268 212.5789 0 -1.98873 -23.6736 7.01484 -4.26107 37.77967 6.03565 -7.13409 81.61607 3.11923 62.84962 94.25423 98.95495 33.83539 -1.31072 63.57702 11.89145 -61.67448 108.79254 -52.38126 36.9007 6.87906 -1.90355 8.09881 13.31836 0.26653 -6.79649 -0.75631 -20.47953 0.30241 0.90451 -10.3376 -4.6956 -0.97038 3.75935 6.0309
0.00192 0.58749 -0.04301 212.56209 0 -2.00726 -23.93171 7.00386 -4.29212 37.79722 5.68326 -6.81913 80.7679 2.74181 62.52289 94.4051 99.60631 32.72581 -1.33581 63.52876 12.12857 -61.62573 108.1505 -50.86142 36.33347 7.07563 -1.97008 8.10677 13.11981 0.45063 -6.92597 -0.95756 -20.20812 0.16069 0.98746 -10.09377 -4.37455 -1.01383 3.71434 5.7781
0.00196 0.58735 -0.0433 212.5693 0 -2.01756 -24.11506 7.00206 -4.31287 37.75851 5.34572 -6.52145 80.08434 2.29635 62.25416 94.43056 100.15258 31.59806 -1.32831 63.25341 12.35318 -61.57575 107.37402 -49.66549 35.30601 7.31281 -2.02825 8.10695 12.95458 0.60354 -7.01842 -1.10487 -19.98474 0.05807 1.04828 -9.89818 -4.13432 -1.04285 3.67828 5.57282
0.00191 0.58728 -0.04351 212.63186 0 -2.00389 -24.1196 7.0191 -4.29551 37.55171 5.06456 -6.27432 79.90806 1.74818 62.16937 94.15773 100.36128 30.63067 -1.26257 62.40754 12.43565 -61.5331 106.35674 -49.00048 33.25952 7.66218 -2.08205 8.0873 13.09491 0.70763 -7.01971 -1.03968 -20.09553 0.05415 1.05135 -9.80368 -4.09768 -1.03892 3.66027 5.47799
0.00181 0.58724 -0.04368 212.71461 0 -1.98232 -24.04839 7.04404 -4.2677 37.28336 4.80485 -6.05129 79.90873 1.12612 62.14515 93.76856 100.46655 29.66208 -1.16366 61.35724 12.52793 -61.48515 105.21527 -48.72569 30.741 8.04773 -2.13098 8.06036 13.28951 0.78546 -6.98642 -0.91693 -20.27135 0.08681 1.03314 -9.75404 -4.13973 -1.02011 3.65103 5.43109
0.00171 0.58719 -0.04386 212.78376 0 -1.96546 -24.00436 7.06414 -4.24706 37.0385 4.5436 -5.82971 79.8376 0.50783 62.0908 93.43462 100.64202 28.67275 -1.07272 60.44002 12.6874 -61.43834 104.10713 -48.55341 28.33375 8.41212 -2.18356 8.03739 13.44414 0.87532 -6.97182 -0.8317 -20.39798 0.10035 1.02562 -9.68573 -4.14609 -1.00549 3.63905 5.36805
0.00169 0.58714 -0.04409 212.87469 0 -1.94388 -23.99071 7.0905 -4.21671 36.81698 4.2436 -5.55283 79.7238 0.01738 62.04525 93.0815 100.72532 27.75218 -1.01119 59.34753 12.53837 -61.40908 103.07441 -47.252 26.33482 8.80417 -2.22696 8.0114 13.63508 0.96037 -6.94331 -0.7056 -20.58257 0.12659 1.01328 -9.61448 -4.15419 -1.00166 3.62229 5.28272
0.0015 0.5871 -0.04421 212.9234 0 -1.93019 -23.89414 7.10552 -4.20421 36.52925 4.03107 -5.39781 79.74062 -0.76385 61.99605 92.74591 100.97052 26.69244 -0.87877 58.56461 13.04121 -61.32634 101.87063 -48.32445 23.39582 9.13875 -2.28963 7.98996 13.77459 1.05015 -6.93536 -0.64794 -20.67135 0.13395 1.00598 -9.55826 -4.17712 -0.97155 3.61756 5.25477
0.00092 0.58709 -0.04409 212.85639 0 -1.94095 -23.60819 7.08502 -4.23946 36.08937 4.05403 -5.57537 80.10465 -2.25314 61.92649 92.46844 101.71385 25.28843 -0.58613 58.79102 15.27739 -61.22223 100.1404 -56.4938 17.82762 9.3761 -2.40555 7.98412 13.75332 1.16891 -7.00132 -0.79711 -20.48083 0.08371 1.01942 -9.53402 -4.21533 -0.87605 3.64183 5.37199
0.00018 0.5871 -0.04386 212.74477 0 -1.95979 -23.23774 7.05323 -4.29349 35.58169 4.16502 -5.87463 80.58738 -4.04557 61.84908 92.21839 102.60805 23.73584 -0.22071 59.31319 18.17613 -61.0342 98.2617 -66.92849 11.35873 9.54296 -2.54178 7.98289 13.68329 1.2924 -7.08779 -1.01558 -20.19492 0.01235 1.03837 -9.52273 -4.26682 -0.75389 3.67825 5.54553
-0.00052 0.58711 -0.04366 212.64936 0 -1.97446 -22.89249 7.02774 -4.3417 35.09435 4.2368 -6.11755 81.00063 -5.74953 61.77476 91.96754 103.42937 22.23494 0.13171 59.64086 20.82042 -60.81153 96.50631 -75.89875 5.40267 9.69334 -2.66973 7.97886 13.64333 1.40819 -7.15956 -1.19873 -19.95559 -0.05196 1.05391 -9.50366 -4.31575 -0.64185 3.71028 5.69382
-0.00109 0.5871 -0.04356 212.57173 0 -1.99097 -22.60043 6.997 -4.3788 34.649 4.30587 -6.36636 81.49539 -7.2503 61.71127 91.65823 104.30861 20.82004 0.40941 60.23783 23.28952 -60.92458 94.50389 -86.68589 -1.00428 10.0419 -2.79299 7.97774 13.57186 1.54611 -7.25302 -1.39565 -19.70473 -0.10447 1.07285 -9.49323 -4.35177 -0.53826 3.73758 5.84161
-0.00198 0.58713 -0.04321 212.44639 0 -2.00564 -22.17836 6.97517 -4.44277 34.10104 4.40126 -6.63057 81.83383 -9.24249 61.61415 91.48507 105.05009 19.16619 0.84852 60.31794 26.25382 -60.28256 92.99082 -94.26283 -6.68333 9.97041 -2.93148 7.97149 13.5532 1.6398 -7.30634 -1.58168 -19.45412 -0.18671 1.0859 -9.46851 -4.4181 -0.41027 3.77783 6.00413
-0.00373 0.58729 -0.04223 212.19824 0 -2.01366 -21.41964 6.9743 -4.58398 33.28522 4.54853 -6.91579 81.81529 -12.53815 61.49376 91.62768 105.86003 17.10925 1.8114 59.15215 30.65101 -57.89085 92.79349 -92.06649 -10.09907 8.67017 -3.10248 7.95224 13.69884 1.60734 -7.24642 -1.71538 -19.23114 -0.34909 1.08492 -9.39001 -4.55301 -0.22687 3.84822 6.18523
-0.00582 0.58749 -0.04101 211.90373 0 -2.01964 -20.53331 6.98406 -4.75035 32.36917 4.71966 -7.21086 81.61348 -16.31131 61.32401 91.9168 106.45053 14.78211 2.91714 57.41332 35.47869 -54.68896 93.10684 -86.62704 -12.75539 6.9653 -3.28899 7.92736 13.89792 1.53092 -7.14501 -1.8368 -19.01064 -0.5403 1.07735 -9.29827 -4.71962 -0.0188 3.93173 6.38046
-0.00777 0.58767 -0.03988 211.63183 0 -2.02615 -19.70439 6.99297 -4.90006 31.4998 4.87847 -7.49563 81.42874 -19.8549 61.13585 92.17473 106.8049 12.42639 3.89319 55.76699 39.96311 -51.6445 93.23544 -82.90106 -15.77793 5.50228 -3.47147 7.90348 14.06805 1.4766 -7.06117 -1.96784 -18.78656 -0.71629 1.07041 -9.21998 -4.87926 0.18134 4.01082 6.5745
-0.00967 0.58787 -0.03882 211.35249 0 -2.03405 -18.87394 6.98422 -5.07189 30.62251 5.04395 -7.80842 81.53446 -23.47183 61.13168 92.28479 108.52243 10.67909 5.14112 54.825 45.10395 -49.46404 93.16303 -78.23662 -18.74113 3.79308 -3.64199 7.88598 14.25612 1.41331 -6.9838 -2.08503 -18.57011 -0.90168 1.07319 -9.1118 -5.00863 0.36813 4.08358 6.74869
-0.01174 0.58803 -0.03756 211.07747 0 -2.03919 -18.01871 7.01551 -5.20412 29.73976 5.20339 -8.06464 80.9818 -27.03334 60.71785 92.73645 107.42184 7.63424 5.86089 52.29463 48.95851 -45.3214 93.62738 -74.73481 -21.6383 2.50024 -3.84071 7.85424 14.42026 1.3584 -6.88241 -2.22624 -18.33889 -1.07437 1.05463 -9.06128 -5.20765 0.58876 4.17281 6.96657
